<svg xmlns="http://www.w3.org/2000/svg" width="259.365" height="75.045" viewBox="0 0 259.365 75.045">
  <g id="Group_1" data-name="Group 1" transform="translate(-135.395)">
    <path id="fullLogo" d="M207.049,102.895c-2.774-.595-3.423-1.261-3.423-2.45v-.037c0-1.135,1.045-2.036,2.685-2.036a5.54,5.54,0,0,1,3.639,1.369l.829-1.1a6.583,6.583,0,0,0-4.432-1.549c-2.4,0-4.144,1.459-4.144,3.442v.036c0,2.071,1.333,3.009,4.233,3.639,2.648.558,3.279,1.224,3.279,2.4v.035c0,1.244-1.117,2.144-2.81,2.144A6,6,0,0,1,202.581,107l-.882,1.045a7.378,7.378,0,0,0,5.152,2.017c2.5,0,4.306-1.405,4.306-3.567v-.036c0-1.928-1.3-2.954-4.108-3.567" transform="translate(-23.939 -35.056)" fill="#af9769"/>
    <path id="fullLogo-2" data-name="fullLogo" d="M227.491,97.234l-5.747,12.7H223.2l1.5-3.333h6.864l1.478,3.333h1.531l-5.747-12.7Zm-2.234,8.071,2.883-6.414L231,105.305Z" transform="translate(-31.177 -35.107)" fill="#af9769"/>
    <path id="fullLogo-3" data-name="fullLogo" d="M249.952,97.376h-1.423v12.61h8.521v-1.314h-7.1Z" transform="translate(-40.847 -35.158)" fill="#af9769"/>
    <path id="fullLogo-4" data-name="fullLogo" d="M273.248,97.037a6.389,6.389,0,0,0-6.45,6.522v.036a6.432,6.432,0,1,0,12.863-.036v-.037a6.329,6.329,0,0,0-6.414-6.485m4.936,6.558a4.954,4.954,0,0,1-4.936,5.17,5.013,5.013,0,0,1-4.972-5.206v-.037a4.954,4.954,0,0,1,4.936-5.17,5.014,5.014,0,0,1,4.972,5.207Z" transform="translate(-47.443 -35.035)" fill="#af9769"/>
    <path id="fullLogo-5" data-name="fullLogo" d="M303.734,107.482,295.79,97.376h-1.333v12.61h1.388V99.646l8.142,10.341h1.135V97.376h-1.387Z" transform="translate(-57.43 -35.158)" fill="#af9769"/>
    <path id="fullLogo-6" data-name="fullLogo" d="M334.881,102.895c-2.775-.595-3.423-1.261-3.423-2.45v-.037c0-1.135,1.045-2.036,2.685-2.036a5.539,5.539,0,0,1,3.639,1.369l.829-1.1a6.583,6.583,0,0,0-4.432-1.549c-2.4,0-4.144,1.459-4.144,3.442v.036c0,2.071,1.333,3.009,4.234,3.639,2.648.558,3.278,1.224,3.278,2.4v.035c0,1.244-1.117,2.144-2.811,2.144A6.005,6.005,0,0,1,330.412,107l-.882,1.045a7.38,7.38,0,0,0,5.152,2.017c2.5,0,4.305-1.405,4.305-3.567v-.036c0-1.928-1.3-2.954-4.107-3.567" transform="translate(-70.093 -35.056)" fill="#af9769"/>
    <path id="fullLogo-7" data-name="fullLogo" d="M349.858,98.69h4.233v11.3h1.442V98.69h4.234V97.375h-9.909Z" transform="translate(-77.432 -35.158)" fill="#af9769"/>
    <path id="fullLogo-8" data-name="fullLogo" d="M381.126,104.708c0,2.756-1.477,4.161-3.8,4.161-2.4,0-3.855-1.532-3.855-4.252V97.376h-1.424v7.332c0,3.567,2.126,5.476,5.243,5.476,3.153,0,5.26-1.909,5.26-5.584V97.376h-1.424Z" transform="translate(-85.443 -35.158)" fill="#af9769"/>
    <path id="fullLogo-9" data-name="fullLogo" d="M400.952,97.376h-4.377v12.61h4.377c3.963,0,6.7-2.756,6.7-6.3v-.037c0-3.549-2.739-6.269-6.7-6.269m5.225,6.342a4.881,4.881,0,0,1-5.225,4.954H398V98.691h2.955a4.908,4.908,0,0,1,5.225,4.991Z" transform="translate(-94.3 -35.158)" fill="#af9769"/>
    <rect id="fullLogo-10" data-name="fullLogo" width="1.423" height="12.61" transform="translate(318.29 62.218)" fill="#af9769"/>
    <path id="fullLogo-11" data-name="fullLogo" d="M438.042,97.037a6.389,6.389,0,0,0-6.45,6.522v.036a6.432,6.432,0,1,0,12.863-.036v-.037a6.329,6.329,0,0,0-6.414-6.485m4.937,6.558a4.954,4.954,0,0,1-4.937,5.17,5.013,5.013,0,0,1-4.972-5.206v-.037a4.954,4.954,0,0,1,4.937-5.17,5.014,5.014,0,0,1,4.972,5.207Z" transform="translate(-106.943 -35.035)" fill="#af9769"/>
    <path id="fullLogo-12" data-name="fullLogo" d="M463.164,102.895c-2.775-.595-3.423-1.261-3.423-2.45v-.037c0-1.135,1.045-2.036,2.684-2.036a5.54,5.54,0,0,1,3.639,1.369l.829-1.1a6.583,6.583,0,0,0-4.432-1.549c-2.4,0-4.144,1.459-4.144,3.442v.036c0,2.071,1.333,3.009,4.234,3.639,2.648.558,3.279,1.224,3.279,2.4v.035c0,1.244-1.118,2.144-2.811,2.144A6,6,0,0,1,458.7,107l-.882,1.045a7.379,7.379,0,0,0,5.152,2.017c2.5,0,4.306-1.405,4.306-3.567v-.036c0-1.928-1.3-2.954-4.107-3.567" transform="translate(-116.41 -35.056)" fill="#af9769"/>
    <path id="fullLogo-13" data-name="fullLogo" d="M167.368,25.008a18.854,18.854,0,0,0-4.3-3.51,40.313,40.313,0,0,0-5.918-2.924q-3.458-1.391-5.74-2.514a19.12,19.12,0,0,1-3.654-2.246,6.649,6.649,0,0,1-1.943-2.406,7.307,7.307,0,0,1-.571-2.994,5.885,5.885,0,0,1,2.068-4.742,8.688,8.688,0,0,1,5.775-1.747,13.858,13.858,0,0,1,4.884.767,11.139,11.139,0,0,1,3.44,2A11.266,11.266,0,0,1,163.75,7.5a27.592,27.592,0,0,1,1.6,3.19.612.612,0,0,0,.642.41.491.491,0,0,0,.321-.178.592.592,0,0,0,.143-.41V4.029a.927.927,0,0,0-.428-.749,10.078,10.078,0,0,0-.891-.624,13.013,13.013,0,0,0-2.264-1.105,24.01,24.01,0,0,0-3.69-1.07A24.935,24.935,0,0,0,153.946,0a21.8,21.8,0,0,0-8.039,1.3,15.2,15.2,0,0,0-5.294,3.37,12.338,12.338,0,0,0-2.924,4.634,15.463,15.463,0,0,0-.891,5.1,12.827,12.827,0,0,0,.445,3.387A15.889,15.889,0,0,0,138.51,21a13.312,13.312,0,0,0,2.264,3.208,17.644,17.644,0,0,0,2.941,2.46,28.394,28.394,0,0,0,3.369,1.925q1.763.856,3.583,1.64,1.64.714,3.208,1.586a13.589,13.589,0,0,1,2.8,2.051,9.293,9.293,0,0,1,1.961,2.691,8,8,0,0,1,.731,3.512,9.354,9.354,0,0,1-.624,3.6,6.853,6.853,0,0,1-1.675,2.46,6.528,6.528,0,0,1-2.442,1.409,9.524,9.524,0,0,1-2.924.445,14.623,14.623,0,0,1-4.92-.785,13.257,13.257,0,0,1-4.046-2.3,17.528,17.528,0,0,1-3.351-3.761,32.746,32.746,0,0,1-2.8-5.17c-.143-.332-.357-.469-.642-.41s-.427.292-.427.7V48.949q0,.569.445.641a.585.585,0,0,0,.66-.427,7.58,7.58,0,0,1,.748-1.372,1.423,1.423,0,0,1,1.248-.553,3.062,3.062,0,0,1,.891.142c.309.1.594.191.856.285q2.781.929,5.758,1.694a23.994,23.994,0,0,0,6.007.767,26.336,26.336,0,0,0,8.306-1.176,16.64,16.64,0,0,0,5.846-3.227,12.829,12.829,0,0,0,3.441-4.8,15.378,15.378,0,0,0,1.123-5.882,16.77,16.77,0,0,0-.874-5.632,13.222,13.222,0,0,0-2.6-4.4" transform="translate(-0.043)" fill="#af9769"/>
    <path id="fullLogo-14" data-name="fullLogo" d="M237.609,1.562H223.6a.776.776,0,0,0-.535.161.544.544,0,0,0-.2.356.54.54,0,0,0,.142.392.682.682,0,0,0,.482.231q.427.072,1.355.321a7.055,7.055,0,0,1,1.871.838A5.59,5.59,0,0,1,228.376,5.5a4.7,4.7,0,0,1,.713,2.691V30.9q0,1.818-.071,3.921a25.336,25.336,0,0,1-.482,4.135,14.787,14.787,0,0,1-1.319,3.816,8.374,8.374,0,0,1-4.029,3.779,14.778,14.778,0,0,1-1.676.624,13.131,13.131,0,0,1-1.764.41,10.628,10.628,0,0,1-1.675.142q-5.421,0-8.04-3.226t-2.62-9.288V8.193a4.7,4.7,0,0,1,.713-2.691,5.591,5.591,0,0,1,1.658-1.641,7.055,7.055,0,0,1,1.871-.838q.927-.248,1.355-.321a.682.682,0,0,0,.482-.231.537.537,0,0,0,.142-.392.544.544,0,0,0-.2-.356.778.778,0,0,0-.535-.161H190.158a.773.773,0,0,0-.534.161.539.539,0,0,0-.2.356.537.537,0,0,0,.142.392.68.68,0,0,0,.481.231q.427.072,1.355.321a7.064,7.064,0,0,1,1.871.838A5.591,5.591,0,0,1,194.936,5.5a4.7,4.7,0,0,1,.712,2.691V32.9a26.941,26.941,0,0,0,1.052,8.021,12.9,12.9,0,0,0,3.3,5.526,13.648,13.648,0,0,0,5.758,3.208,29.974,29.974,0,0,0,8.4,1.034,22.993,22.993,0,0,0,8.573-1.391,13.219,13.219,0,0,0,5.526-4.011,16.02,16.02,0,0,0,2.977-6.435,38.246,38.246,0,0,0,.891-8.662v-22a4.7,4.7,0,0,1,.713-2.691,5.581,5.581,0,0,1,1.657-1.641,7.049,7.049,0,0,1,1.872-.838q.926-.248,1.355-.321a.679.679,0,0,0,.48-.231.538.538,0,0,0,.143-.392.545.545,0,0,0-.2-.356.776.776,0,0,0-.535-.161" transform="translate(-19.508 -0.564)" fill="#af9769"/>
    <path id="fullLogo-15" data-name="fullLogo" d="M366.093,5.5a5.558,5.558,0,0,1,1.658-1.64,6.982,6.982,0,0,1,1.871-.838q.927-.249,1.355-.321a.686.686,0,0,0,.482-.232.54.54,0,0,0,.143-.392.543.543,0,0,0-.2-.357.776.776,0,0,0-.535-.161H355.112a1.42,1.42,0,0,0-1.461.856q-.357.89-1.034,2.585t-1.551,3.85q-.874,2.156-1.854,4.616t-1.961,4.92q-.981,2.459-1.907,4.759t-1.658,4.1q-.731,1.8-1.194,2.977t-.535,1.355c-.047.119-.119.173-.213.16a.269.269,0,0,1-.214-.2q-.107-.248-.571-1.444T339.8,27.088l-1.568-4.1q-.875-2.281-1.8-4.723t-1.854-4.9q-.928-2.46-1.747-4.581t-1.461-3.8q-.641-1.676-.962-2.567a1.364,1.364,0,0,0-1.391-.856H311.441a1.093,1.093,0,0,0-.206.027,1.351,1.351,0,0,0-1.211.829q-.357.89-1.034,2.585t-1.551,3.85q-.874,2.156-1.854,4.616t-1.961,4.92q-.981,2.459-1.907,4.759t-1.658,4.1q-.73,1.8-1.194,2.977l-.535,1.355c-.048.119-.119.173-.214.16a.271.271,0,0,1-.214-.2q-.106-.248-.571-1.444t-1.158-3.012l-1.568-4.1q-.874-2.281-1.8-4.723t-1.854-4.9q-.928-2.46-1.747-4.581t-1.462-3.8q-.642-1.676-.963-2.567a1.363,1.363,0,0,0-1.39-.856H267.814a.776.776,0,0,0-.535.161.546.546,0,0,0-.2.357.539.539,0,0,0,.142.392.688.688,0,0,0,.482.232q.427.072,1.355.321a6.994,6.994,0,0,1,1.871.838,5.588,5.588,0,0,1,1.658,1.64,4.7,4.7,0,0,1,.713,2.692V43.059a4.677,4.677,0,0,1-.713,2.709,5.888,5.888,0,0,1-1.658,1.641,6.306,6.306,0,0,1-1.871.838q-.927.232-1.355.3a.9.9,0,0,0-.482.249.488.488,0,0,0-.142.374.543.543,0,0,0,.2.357.779.779,0,0,0,.535.161H281.29a.776.776,0,0,0,.534-.161.538.538,0,0,0,.2-.357.483.483,0,0,0-.142-.374.89.89,0,0,0-.481-.249q-.428-.072-1.355-.3a6.306,6.306,0,0,1-1.871-.838,5.863,5.863,0,0,1-1.658-1.641,4.677,4.677,0,0,1-.712-2.709V7.017c.023-.238.107-.356.249-.356s.25.095.321.285q.035.143.535,1.39t1.283,3.3q.783,2.051,1.818,4.724t2.193,5.669q1.158,2.994,2.37,6.149t2.371,6.133q1.157,2.976,2.192,5.633t1.818,4.652q.783,2,1.248,3.191t.5,1.266a.557.557,0,0,0,.517.356.633.633,0,0,0,.553-.356q.035-.071.5-1.177t1.211-2.977q.75-1.872,1.729-4.331t2.086-5.223q1.106-2.762,2.264-5.687t2.264-5.7q1.1-2.78,2.1-5.259t1.747-4.385q.749-1.907,1.212-3.066t.535-1.3q.177-.356.374-.267a.338.338,0,0,1,.2.339V43.059a4.687,4.687,0,0,1-.713,2.709,5.888,5.888,0,0,1-1.658,1.641,6.313,6.313,0,0,1-1.871.838q-.928.232-1.355.3a.9.9,0,0,0-.482.249.483.483,0,0,0-.143.374.54.54,0,0,0,.2.357.779.779,0,0,0,.535.161h22.745a.78.78,0,0,0,.535-.161.543.543,0,0,0,.2-.357.488.488,0,0,0-.142-.374.892.892,0,0,0-.481-.249q-.428-.072-1.355-.3a6.3,6.3,0,0,1-1.871-.838,5.854,5.854,0,0,1-1.658-1.641,4.672,4.672,0,0,1-.713-2.709V11.473c.021.056.04.1.062.16q.784,2.051,1.818,4.724l2.192,5.669q1.159,2.994,2.371,6.149t2.371,6.133q1.157,2.976,2.192,5.633t1.818,4.652q.785,2,1.248,3.191t.5,1.266a.557.557,0,0,0,.517.356.632.632,0,0,0,.552-.356q.035-.071.5-1.177t1.212-2.977q.749-1.872,1.729-4.331t2.086-5.223q1.105-2.762,2.264-5.687t2.264-5.7q1.1-2.78,2.1-5.259t1.747-4.385q.749-1.907,1.213-3.066t.534-1.3q.178-.356.374-.267a.337.337,0,0,1,.2.339V43.059a4.677,4.677,0,0,1-.713,2.709,5.878,5.878,0,0,1-1.657,1.641,6.328,6.328,0,0,1-1.871.838q-.928.232-1.355.3a.9.9,0,0,0-.482.249.482.482,0,0,0-.142.374.534.534,0,0,0,.2.357.779.779,0,0,0,.535.161H370.87a.779.779,0,0,0,.535-.161.54.54,0,0,0,.2-.357.488.488,0,0,0-.143-.374.892.892,0,0,0-.482-.249q-.427-.072-1.355-.3a6.3,6.3,0,0,1-1.871-.838,5.855,5.855,0,0,1-1.658-1.641,4.677,4.677,0,0,1-.713-2.709V8.194a4.7,4.7,0,0,1,.713-2.692" transform="translate(-47.546 -0.564)" fill="#af9769"/>
    <path id="fullLogo-16" data-name="fullLogo" d="M439.119,45.769a5.877,5.877,0,0,1-1.659,1.64,6.286,6.286,0,0,1-1.871.838q-.927.232-1.355.3a.9.9,0,0,0-.482.249.484.484,0,0,0-.142.374.539.539,0,0,0,.2.357.775.775,0,0,0,.535.161h22.745a.775.775,0,0,0,.534-.161.539.539,0,0,0,.2-.357.484.484,0,0,0-.142-.374.9.9,0,0,0-.482-.249q-.427-.071-1.355-.3a6.283,6.283,0,0,1-1.871-.838,5.866,5.866,0,0,1-1.658-1.64,4.675,4.675,0,0,1-.713-2.709V8.193A4.694,4.694,0,0,1,452.31,5.5a5.583,5.583,0,0,1,1.658-1.641,7.046,7.046,0,0,1,1.871-.838q.927-.248,1.355-.32a.688.688,0,0,0,.482-.232.537.537,0,0,0,.142-.392.542.542,0,0,0-.2-.356.775.775,0,0,0-.534-.161H434.342a.775.775,0,0,0-.535.161.542.542,0,0,0-.2.356.537.537,0,0,0,.142.392.688.688,0,0,0,.482.232q.427.071,1.355.32a7.051,7.051,0,0,1,1.871.838A5.592,5.592,0,0,1,439.119,5.5a4.7,4.7,0,0,1,.712,2.691V43.06a4.68,4.68,0,0,1-.712,2.709" transform="translate(-107.671 -0.564)" fill="#af9769"/>
    <path id="fullLogo-17" data-name="fullLogo" d="M516.2,1.562h-41.64c-.5,0-.749.227-.749.677v9.911q0,.57.464.624t.677-.517a10.483,10.483,0,0,1,.481-1.087,15.483,15.483,0,0,1,1.016-1.73,16.776,16.776,0,0,1,1.569-1.978,12.831,12.831,0,0,1,2.157-1.871,11.681,11.681,0,0,1,2.8-1.408,10.47,10.47,0,0,1,3.494-.553,3.1,3.1,0,0,1,1.764.427,2.475,2.475,0,0,1,.909,1.123,4.9,4.9,0,0,1,.339,1.569q.054.875.054,1.765V20.475q0,2.941-.018,5.954t-.018,5.864V43.06a4.682,4.682,0,0,1-.713,2.709,5.907,5.907,0,0,1-1.657,1.64,6.347,6.347,0,0,1-1.872.838q-.928.231-1.355.3a.9.9,0,0,0-.481.249.481.481,0,0,0-.143.374.542.542,0,0,0,.2.357.778.778,0,0,0,.535.16h22.745a.779.779,0,0,0,.535-.16.544.544,0,0,0,.2-.357.482.482,0,0,0-.142-.374.9.9,0,0,0-.481-.249q-.428-.071-1.355-.3a6.322,6.322,0,0,1-1.871-.838,5.875,5.875,0,0,1-1.657-1.64,4.678,4.678,0,0,1-.712-2.709V6.91a6.93,6.93,0,0,1,.178-1.249,2.752,2.752,0,0,1,.48-1.051,2.384,2.384,0,0,1,.909-.713,3.442,3.442,0,0,1,1.461-.268,10.31,10.31,0,0,1,3.476.553,12.167,12.167,0,0,1,2.8,1.408,12.525,12.525,0,0,1,2.174,1.871,16.776,16.776,0,0,1,1.569,1.978,13.384,13.384,0,0,1,1,1.73q.357.768.5,1.087c.142.38.367.553.677.517s.463-.243.463-.624V2.239c0-.45-.249-.677-.748-.677" transform="translate(-122.184 -0.564)" fill="#af9769"/>
    <rect id="fullLogo-18" data-name="fullLogo" width="34.5" height="0.817" transform="translate(135.395 68.312)" fill="#af9769"/>
    <rect id="fullLogo-19" data-name="fullLogo" width="34.5" height="0.817" transform="translate(360.259 68.312)" fill="#af9769"/>
  </g>
</svg>
