<svg xmlns="http://www.w3.org/2000/svg" width="182.472" height="52.797" viewBox="0 0 182.472 52.797">
  <g id="Group_75" data-name="Group 75" transform="translate(-135.395)">
    <path id="fullLogo" d="M205.463,101.175c-1.952-.418-2.408-.887-2.408-1.723v-.026c0-.8.735-1.432,1.889-1.432a3.9,3.9,0,0,1,2.56.963l.583-.773a4.631,4.631,0,0,0-3.118-1.09c-1.686,0-2.915,1.027-2.915,2.422v.025c0,1.457.938,2.117,2.978,2.56,1.863.393,2.307.861,2.307,1.686v.025c0,.875-.786,1.509-1.977,1.509a4.225,4.225,0,0,1-3.042-1.255l-.621.735a5.191,5.191,0,0,0,3.624,1.419c1.762,0,3.029-.988,3.029-2.51v-.025c0-1.356-.913-2.079-2.89-2.509" transform="translate(-36.499 -53.447)" fill="#fff"/>
    <path id="fullLogo-2" data-name="fullLogo" d="M225.787,97.234l-4.043,8.936h1.027l1.052-2.345h4.829l1.04,2.345h1.077l-4.043-8.936Zm-1.572,5.678,2.028-4.512,2.015,4.512Z" transform="translate(-47.533 -53.525)" fill="#fff"/>
    <path id="fullLogo-3" data-name="fullLogo" d="M249.53,97.376h-1v8.872h5.995v-.925H249.53Z" transform="translate(-62.278 -53.603)" fill="#fff"/>
    <path id="fullLogo-4" data-name="fullLogo" d="M271.335,97.037a4.5,4.5,0,0,0-4.537,4.589v.025a4.525,4.525,0,1,0,9.05-.025V101.6a4.453,4.453,0,0,0-4.512-4.563m3.473,4.614a3.485,3.485,0,0,1-3.473,3.637,3.527,3.527,0,0,1-3.5-3.662V101.6a3.485,3.485,0,0,1,3.473-3.638,3.528,3.528,0,0,1,3.5,3.664Z" transform="translate(-72.335 -53.417)" fill="#fff"/>
    <path id="fullLogo-5" data-name="fullLogo" d="M300.984,104.486l-5.589-7.11h-.938v8.872h.976V98.973l5.729,7.275h.8V97.376h-.976Z" transform="translate(-87.56 -53.603)" fill="#fff"/>
    <path id="fullLogo-6" data-name="fullLogo" d="M333.294,101.175c-1.952-.418-2.409-.887-2.409-1.723v-.026c0-.8.735-1.432,1.889-1.432a3.9,3.9,0,0,1,2.56.963l.583-.773a4.631,4.631,0,0,0-3.118-1.09c-1.686,0-2.915,1.027-2.915,2.422v.025c0,1.457.938,2.117,2.979,2.56,1.863.393,2.306.861,2.306,1.686v.025c0,.875-.786,1.509-1.977,1.509a4.225,4.225,0,0,1-3.042-1.255l-.621.735a5.192,5.192,0,0,0,3.625,1.419c1.762,0,3.029-.988,3.029-2.51v-.025c0-1.356-.913-2.079-2.89-2.509" transform="translate(-106.867 -53.447)" fill="#fff"/>
    <path id="fullLogo-7" data-name="fullLogo" d="M349.858,98.3h2.978v7.947h1.014V98.3h2.979v-.925h-6.971Z" transform="translate(-118.057 -53.603)" fill="#fff"/>
    <path id="fullLogo-8" data-name="fullLogo" d="M378.434,102.534c0,1.939-1.039,2.928-2.675,2.928-1.685,0-2.712-1.077-2.712-2.991V97.376h-1v5.158c0,2.51,1.5,3.853,3.689,3.853,2.218,0,3.7-1.343,3.7-3.929V97.376h-1Z" transform="translate(-130.271 -53.603)" fill="#fff"/>
    <path id="fullLogo-9" data-name="fullLogo" d="M399.655,97.376h-3.08v8.872h3.08a4.442,4.442,0,0,0,4.715-4.435v-.026a4.422,4.422,0,0,0-4.715-4.41m3.676,4.462a3.434,3.434,0,0,1-3.676,3.486h-2.079V98.3h2.079a3.453,3.453,0,0,1,3.676,3.511Z" transform="translate(-143.774 -53.603)" fill="#fff"/>
    <rect id="fullLogo-10" data-name="fullLogo" width="1.001" height="8.872" transform="translate(264.068 43.773)" fill="#fff"/>
    <path id="fullLogo-11" data-name="fullLogo" d="M436.129,97.037a4.5,4.5,0,0,0-4.537,4.589v.025a4.525,4.525,0,1,0,9.05-.025V101.6a4.453,4.453,0,0,0-4.512-4.563m3.473,4.614a3.485,3.485,0,0,1-3.473,3.637,3.527,3.527,0,0,1-3.5-3.662V101.6a3.485,3.485,0,0,1,3.473-3.638,3.528,3.528,0,0,1,3.5,3.664Z" transform="translate(-163.05 -53.417)" fill="#fff"/>
    <path id="fullLogo-12" data-name="fullLogo" d="M461.577,101.175c-1.952-.418-2.408-.887-2.408-1.723v-.026c0-.8.735-1.432,1.888-1.432a3.9,3.9,0,0,1,2.56.963l.583-.773a4.631,4.631,0,0,0-3.118-1.09c-1.686,0-2.915,1.027-2.915,2.422v.025c0,1.457.938,2.117,2.979,2.56,1.863.393,2.307.861,2.307,1.686v.025c0,.875-.786,1.509-1.977,1.509a4.224,4.224,0,0,1-3.042-1.255l-.621.735a5.192,5.192,0,0,0,3.625,1.419c1.762,0,3.029-.988,3.029-2.51v-.025c0-1.356-.913-2.079-2.89-2.509" transform="translate(-177.484 -53.447)" fill="#fff"/>
    <path id="fullLogo-13" data-name="fullLogo" d="M157.925,17.594a13.264,13.264,0,0,0-3.022-2.47,28.361,28.361,0,0,0-4.163-2.057q-2.433-.978-4.038-1.769a13.452,13.452,0,0,1-2.571-1.58,4.678,4.678,0,0,1-1.367-1.693,5.14,5.14,0,0,1-.4-2.106,4.141,4.141,0,0,1,1.455-3.336,6.112,6.112,0,0,1,4.063-1.229,9.75,9.75,0,0,1,3.436.539,7.836,7.836,0,0,1,2.42,1.4,7.925,7.925,0,0,1,1.643,1.981,19.409,19.409,0,0,1,1.128,2.244.431.431,0,0,0,.452.289.345.345,0,0,0,.226-.125.417.417,0,0,0,.1-.289V2.834a.652.652,0,0,0-.3-.527,7.087,7.087,0,0,0-.627-.439,9.155,9.155,0,0,0-1.593-.778,16.892,16.892,0,0,0-2.6-.753A17.542,17.542,0,0,0,148.482,0a15.34,15.34,0,0,0-5.656.915A10.693,10.693,0,0,0,139.1,3.286a8.68,8.68,0,0,0-2.057,3.26,10.878,10.878,0,0,0-.627,3.586,9.024,9.024,0,0,0,.313,2.383,11.178,11.178,0,0,0,.891,2.258,9.366,9.366,0,0,0,1.593,2.257,12.413,12.413,0,0,0,2.069,1.731,19.977,19.977,0,0,0,2.37,1.354q1.241.6,2.52,1.154,1.154.5,2.257,1.116a9.561,9.561,0,0,1,1.969,1.443,6.538,6.538,0,0,1,1.38,1.893,5.63,5.63,0,0,1,.514,2.471,6.581,6.581,0,0,1-.439,2.533,4.821,4.821,0,0,1-1.179,1.731,4.593,4.593,0,0,1-1.718.991,6.7,6.7,0,0,1-2.057.313,10.288,10.288,0,0,1-3.461-.552,9.327,9.327,0,0,1-2.846-1.617,12.332,12.332,0,0,1-2.358-2.646,23.038,23.038,0,0,1-1.969-3.637c-.1-.233-.251-.33-.452-.288s-.3.205-.3.49v8.929q0,.4.313.451a.411.411,0,0,0,.464-.3,5.333,5.333,0,0,1,.526-.966,1,1,0,0,1,.878-.389,2.154,2.154,0,0,1,.627.1c.217.067.418.134.6.2q1.957.653,4.051,1.192a16.88,16.88,0,0,0,4.226.539,18.528,18.528,0,0,0,5.844-.828,11.707,11.707,0,0,0,4.113-2.27,9.026,9.026,0,0,0,2.421-3.374,10.819,10.819,0,0,0,.79-4.138,11.8,11.8,0,0,0-.615-3.963,9.3,9.3,0,0,0-1.831-3.1" transform="translate(-0.066)" fill="#fff"/>
    <path id="fullLogo-14" data-name="fullLogo" d="M223.325,1.562h-9.857a.546.546,0,0,0-.376.113.383.383,0,0,0-.138.25.38.38,0,0,0,.1.276.48.48,0,0,0,.339.163q.3.051.953.226a4.963,4.963,0,0,1,1.317.589,3.933,3.933,0,0,1,1.167,1.154,3.307,3.307,0,0,1,.5,1.893V22.2q0,1.279-.05,2.759a17.823,17.823,0,0,1-.339,2.909,10.4,10.4,0,0,1-.928,2.685,5.892,5.892,0,0,1-2.834,2.658,10.4,10.4,0,0,1-1.179.439,9.239,9.239,0,0,1-1.241.289,7.477,7.477,0,0,1-1.179.1q-3.814,0-5.656-2.27t-1.844-6.534V6.227a3.307,3.307,0,0,1,.5-1.893,3.933,3.933,0,0,1,1.167-1.154,4.963,4.963,0,0,1,1.317-.589q.652-.175.953-.226a.48.48,0,0,0,.339-.163.378.378,0,0,0,.1-.276.382.382,0,0,0-.138-.25.547.547,0,0,0-.376-.113h-16a.544.544,0,0,0-.376.113.379.379,0,0,0-.138.25.378.378,0,0,0,.1.276.478.478,0,0,0,.338.163q.3.051.953.226a4.969,4.969,0,0,1,1.317.589A3.933,3.933,0,0,1,193.3,4.334a3.307,3.307,0,0,1,.5,1.893V23.609a18.954,18.954,0,0,0,.74,5.643,9.079,9.079,0,0,0,2.32,3.888,9.6,9.6,0,0,0,4.051,2.257,21.088,21.088,0,0,0,5.907.727,16.176,16.176,0,0,0,6.032-.979,9.3,9.3,0,0,0,3.888-2.822,11.271,11.271,0,0,0,2.094-4.527,26.908,26.908,0,0,0,.627-6.094V6.227a3.3,3.3,0,0,1,.5-1.893,3.927,3.927,0,0,1,1.166-1.154,4.96,4.96,0,0,1,1.317-.589q.651-.175.953-.226a.478.478,0,0,0,.338-.163.379.379,0,0,0,.1-.276.383.383,0,0,0-.138-.25.546.546,0,0,0-.376-.113" transform="translate(-29.743 -0.86)" fill="#fff"/>
    <path id="fullLogo-15" data-name="fullLogo" d="M336.74,4.334a3.91,3.91,0,0,1,1.167-1.154,4.912,4.912,0,0,1,1.316-.589q.652-.175.953-.226a.483.483,0,0,0,.339-.163.379.379,0,0,0,.1-.276.382.382,0,0,0-.138-.251.546.546,0,0,0-.376-.113H329.014a1,1,0,0,0-1.028.6l-.727,1.818q-.477,1.191-1.091,2.709t-1.3,3.248q-.69,1.73-1.38,3.461t-1.342,3.348q-.653,1.618-1.167,2.885t-.84,2.094q-.326.827-.376.953c-.033.084-.084.122-.15.113a.189.189,0,0,1-.151-.138q-.076-.175-.4-1.016t-.815-2.119l-1.1-2.885q-.616-1.6-1.267-3.323t-1.3-3.449q-.653-1.731-1.229-3.223T312.31,3.97q-.451-1.179-.677-1.806a.96.96,0,0,0-.979-.6H298.29a.769.769,0,0,0-.145.019.95.95,0,0,0-.852.583l-.727,1.818q-.477,1.191-1.091,2.709t-1.3,3.248q-.69,1.73-1.38,3.461t-1.342,3.348q-.653,1.618-1.167,2.885t-.84,2.094l-.376.953c-.034.084-.084.122-.151.113a.19.19,0,0,1-.151-.138q-.075-.175-.4-1.016t-.815-2.119l-1.1-2.885q-.615-1.6-1.267-3.323t-1.3-3.449q-.653-1.731-1.229-3.223T281.617,3.97q-.452-1.179-.677-1.806a.959.959,0,0,0-.978-.6H267.6a.546.546,0,0,0-.376.113.384.384,0,0,0-.138.251.379.379,0,0,0,.1.276.484.484,0,0,0,.339.163q.3.051.953.226a4.921,4.921,0,0,1,1.317.589,3.931,3.931,0,0,1,1.167,1.154,3.307,3.307,0,0,1,.5,1.894V30.757a3.29,3.29,0,0,1-.5,1.906,4.142,4.142,0,0,1-1.167,1.154,4.437,4.437,0,0,1-1.317.589q-.652.163-.953.213a.629.629,0,0,0-.339.175.343.343,0,0,0-.1.263.382.382,0,0,0,.138.251.548.548,0,0,0,.376.113h9.481a.546.546,0,0,0,.376-.113.378.378,0,0,0,.138-.251.34.34,0,0,0-.1-.263.626.626,0,0,0-.338-.175q-.3-.051-.953-.213a4.437,4.437,0,0,1-1.317-.589,4.126,4.126,0,0,1-1.167-1.154,3.29,3.29,0,0,1-.5-1.906V5.4c.016-.167.075-.25.175-.25s.176.067.226.2q.025.1.377.978t.9,2.32q.551,1.443,1.279,3.324l1.543,3.988q.815,2.106,1.668,4.326t1.668,4.315q.814,2.094,1.542,3.963t1.279,3.273q.551,1.405.878,2.245t.351.891a.392.392,0,0,0,.364.25.446.446,0,0,0,.389-.25q.024-.05.351-.828t.852-2.094q.527-1.317,1.216-3.047t1.467-3.674q.778-1.943,1.593-4t1.593-4.013q.777-1.956,1.48-3.7t1.229-3.085q.527-1.342.853-2.157t.376-.916q.125-.25.263-.188a.238.238,0,0,1,.138.238v23.25a3.3,3.3,0,0,1-.5,1.906,4.143,4.143,0,0,1-1.167,1.154,4.441,4.441,0,0,1-1.317.589q-.653.163-.953.213a.63.63,0,0,0-.339.175.34.34,0,0,0-.1.263.38.38,0,0,0,.138.251.548.548,0,0,0,.376.113h16a.549.549,0,0,0,.376-.113.382.382,0,0,0,.138-.251.343.343,0,0,0-.1-.263.628.628,0,0,0-.338-.175q-.3-.051-.953-.213a4.432,4.432,0,0,1-1.317-.589,4.118,4.118,0,0,1-1.166-1.154,3.286,3.286,0,0,1-.5-1.906V8.535l.044.113q.552,1.443,1.279,3.324l1.542,3.988q.815,2.106,1.668,4.326t1.668,4.315q.814,2.094,1.542,3.963t1.279,3.273q.552,1.405.878,2.245t.352.891a.392.392,0,0,0,.364.25.444.444,0,0,0,.388-.25q.025-.05.351-.828t.853-2.094q.527-1.317,1.216-3.047t1.467-3.674q.777-1.943,1.593-4t1.593-4.013q.776-1.956,1.479-3.7t1.229-3.085q.527-1.342.853-2.157t.376-.916q.125-.25.263-.188a.237.237,0,0,1,.138.238v23.25a3.291,3.291,0,0,1-.5,1.906,4.135,4.135,0,0,1-1.166,1.154,4.451,4.451,0,0,1-1.317.589q-.653.163-.953.213a.629.629,0,0,0-.339.175.339.339,0,0,0-.1.263.376.376,0,0,0,.138.251.548.548,0,0,0,.376.113h16a.548.548,0,0,0,.376-.113.38.38,0,0,0,.138-.251.343.343,0,0,0-.1-.263.628.628,0,0,0-.339-.175q-.3-.051-.953-.213a4.429,4.429,0,0,1-1.316-.589,4.118,4.118,0,0,1-1.167-1.154,3.29,3.29,0,0,1-.5-1.906V6.228a3.306,3.306,0,0,1,.5-1.894" transform="translate(-72.491 -0.86)" fill="#fff"/>
    <path id="fullLogo-16" data-name="fullLogo" d="M437.486,32.663a4.135,4.135,0,0,1-1.167,1.153,4.423,4.423,0,0,1-1.316.589q-.652.163-.953.214a.633.633,0,0,0-.339.175.341.341,0,0,0-.1.263.379.379,0,0,0,.138.251.545.545,0,0,0,.376.113h16a.545.545,0,0,0,.376-.113.379.379,0,0,0,.138-.251.34.34,0,0,0-.1-.263.633.633,0,0,0-.339-.175q-.3-.05-.953-.214a4.42,4.42,0,0,1-1.317-.589,4.128,4.128,0,0,1-1.167-1.153,3.289,3.289,0,0,1-.5-1.906V6.227a3.3,3.3,0,0,1,.5-1.893,3.928,3.928,0,0,1,1.167-1.154,4.957,4.957,0,0,1,1.317-.589q.652-.175.953-.225a.484.484,0,0,0,.339-.163.377.377,0,0,0,.1-.276.381.381,0,0,0-.138-.25.545.545,0,0,0-.376-.113h-16a.545.545,0,0,0-.376.113.381.381,0,0,0-.138.25.378.378,0,0,0,.1.276.484.484,0,0,0,.339.163q.3.05.953.225a4.961,4.961,0,0,1,1.316.589,3.935,3.935,0,0,1,1.167,1.154,3.306,3.306,0,0,1,.5,1.893v24.53a3.293,3.293,0,0,1-.5,1.906" transform="translate(-164.16 -0.86)" fill="#fff"/>
    <path id="fullLogo-17" data-name="fullLogo" d="M503.628,1.562h-29.3c-.351,0-.527.16-.527.476V9.011q0,.4.326.439t.476-.364a7.381,7.381,0,0,1,.339-.765,10.892,10.892,0,0,1,.715-1.217,11.8,11.8,0,0,1,1.1-1.392A9.028,9.028,0,0,1,478.283,4.4a8.217,8.217,0,0,1,1.969-.991,7.366,7.366,0,0,1,2.458-.389,2.181,2.181,0,0,1,1.241.3,1.741,1.741,0,0,1,.64.79,3.448,3.448,0,0,1,.238,1.1q.038.616.038,1.242v8.415q0,2.069-.013,4.189t-.013,4.126v7.575a3.294,3.294,0,0,1-.5,1.906,4.156,4.156,0,0,1-1.166,1.154,4.465,4.465,0,0,1-1.317.589q-.653.163-.953.213a.629.629,0,0,0-.338.175.338.338,0,0,0-.1.263.381.381,0,0,0,.138.251.547.547,0,0,0,.376.113h16a.548.548,0,0,0,.376-.113.383.383,0,0,0,.138-.251.339.339,0,0,0-.1-.263.631.631,0,0,0-.339-.175q-.3-.05-.953-.213a4.449,4.449,0,0,1-1.317-.589,4.134,4.134,0,0,1-1.166-1.154,3.291,3.291,0,0,1-.5-1.906V5.325a4.874,4.874,0,0,1,.125-.878,1.935,1.935,0,0,1,.338-.739,1.677,1.677,0,0,1,.64-.5,2.421,2.421,0,0,1,1.028-.188,7.253,7.253,0,0,1,2.445.389,8.559,8.559,0,0,1,1.969.991,8.81,8.81,0,0,1,1.53,1.317A11.8,11.8,0,0,1,502.3,7.1a9.423,9.423,0,0,1,.7,1.217q.251.54.352.765c.1.267.258.389.476.364s.326-.171.326-.439V2.038c0-.317-.175-.476-.526-.476" transform="translate(-186.288 -0.86)" fill="#fff"/>
    <rect id="fullLogo-18" data-name="fullLogo" width="24.272" height="0.575" transform="translate(135.395 48.06)" fill="#fff"/>
    <rect id="fullLogo-19" data-name="fullLogo" width="24.272" height="0.575" transform="translate(293.595 48.06)" fill="#fff"/>
  </g>
</svg>
